<svg width="322" height="110" viewBox="0 0 322 110" fill="none" xmlns="http://www.w3.org/2000/svg">
<g clip-path="url(#clip0_9_10)">
<path d="M41.3838 15.1994C39.611 16.9723 39.168 18.3019 39.168 19.1883C39.168 20.0748 40.4975 20.518 41.3838 20.518C42.2703 20.518 43.5997 20.0748 43.5997 19.1883C43.5997 18.3019 43.1567 16.9723 41.3838 15.1994ZM37.8349 20.3543C37.5697 20.3512 37.2318 20.3963 36.7778 20.518C37.1022 21.7289 37.4861 21.9508 37.8699 22.1724C38.2537 22.394 38.8591 22.2315 39.0808 21.8476C39.3024 21.4638 39.1399 20.8583 38.7561 20.6367C38.5162 20.4983 38.2766 20.3594 37.8349 20.3543ZM44.9328 20.3543C44.491 20.3594 44.2515 20.4982 44.0116 20.6368C43.6278 20.8583 43.4653 21.4638 43.6869 21.8476C43.9085 22.2315 44.514 22.394 44.8978 22.1724C45.2816 21.9508 45.6655 21.7289 45.9899 20.518C45.5358 20.3963 45.198 20.3512 44.9328 20.3543ZM41.3838 21.4042C40.4048 21.4042 39.6107 22.1981 39.6107 23.1773C39.6107 24.1564 40.4047 24.9504 41.3838 24.9504C42.3629 24.9504 43.157 24.1565 43.157 23.1773C43.157 22.1982 42.3629 21.4041 41.3838 21.4041V21.4042ZM37.2375 23.1377C37.0934 23.1405 36.9529 23.1767 36.821 23.2529C36.0533 23.6961 35.1237 24.7444 34.4747 27.1662C36.8965 27.8151 38.2699 27.5338 39.0376 27.0906C39.8053 26.6474 39.524 25.2746 39.0808 24.5069C38.7138 23.8712 37.9315 23.124 37.2375 23.1377ZM45.4906 23.1377C44.8066 23.1521 44.047 23.8832 43.6869 24.5069C43.2437 25.2746 42.9624 26.6474 43.7301 27.0906C44.4977 27.5339 45.8712 27.8151 48.293 27.1662C47.6441 24.7444 46.7144 23.6961 45.9467 23.2528C45.8028 23.1698 45.6485 23.1344 45.4906 23.1377ZM41.3838 25.8366C40.9406 25.8366 40.4977 26.2795 40.4977 26.7227C40.4977 27.1659 40.4974 27.6094 41.3838 28.4958C42.2703 27.6094 42.2699 27.1659 42.2699 26.7227C42.2699 26.2795 41.8271 25.8366 41.3838 25.8366V25.8366Z" fill="#5188ED" fill-opacity="0.72"/>
</g>
<path fill-rule="evenodd" clip-rule="evenodd" d="M184.977 49.4768L223.261 49.4991L221.064 61.6933L194.193 61.7164L190 72.2662L189.892 72.5926V72.5918C193.226 69.8987 197.488 68.2502 202.681 68.2502C218.063 68.2502 223.326 78.3918 218.183 92.7783C215.486 100.322 207.22 109.274 190.483 109.274C172.917 109.274 168.204 100.489 169.792 90.234H184.516C183.697 94.3318 187.753 97.5991 193.149 97.5991C197.429 97.5991 202.328 94.9705 204.063 90.1199C206.403 83.5746 203.805 78.3926 196.671 78.3926C193.166 78.3926 189.282 79.3569 186.506 82.8581H173.044L184.977 49.4768Z" fill="black"/>
<path fill-rule="evenodd" clip-rule="evenodd" d="M252.003 103.975L251.666 108.247L260.769 108.236L265.28 83.2085L246.182 83.2011L244.428 92.932L250.743 92.927C249.512 96.3646 245.893 97.9396 242.108 97.9396C235.191 97.9396 232.951 92.4527 234.202 85.5115C235.458 78.543 239.028 73.1017 245.711 73.1017C249.441 73.1017 251.538 75.1948 251.763 78.7182H265.505C265.691 69.6707 260.686 61.9296 247.411 61.5999C239.86 61.7809 232.735 64.8416 227.646 70.0186C223.553 74.1825 220.656 79.5379 219.619 85.2925C217.361 97.8197 223.036 109.295 237.737 109.295C243.857 109.295 247.623 107.482 252.003 103.975Z" fill="black"/>
<path fill-rule="evenodd" clip-rule="evenodd" d="M227.866 60.729C232.945 55.6207 244.686 47.0697 256.601 47.0697C267.11 47.1053 274.585 52.288 279.112 55.5826L270.288 61.3678C267.05 58.4145 258.872 52.7128 248.23 52.7128C239.919 52.7128 232.385 56.8445 227.866 60.729Z" fill="#189143"/>
<path fill-rule="evenodd" clip-rule="evenodd" d="M231.087 53.7514C240.228 43.8445 253.372 35.1424 268.608 35.1424C281.298 35.1424 290.931 40.6342 296.653 44.6477L283.937 53.2912C279.526 49.4479 268.391 42.7785 256.615 42.7785C246.26 42.7785 237.166 47.9886 231.087 53.7514Z" fill="#189143"/>
<path fill-rule="evenodd" clip-rule="evenodd" d="M232.629 48.3331C245.782 30.2802 266.35 19.58 287.048 19.58C302.516 19.58 314.227 24.6984 322 30.1513L302.541 42.4488C294.837 36.9306 283.813 31.0578 269.039 31.0578C254.603 31.0578 242.296 38.2973 232.629 48.3331Z" fill="#189143"/>
<path d="M14.0381 40.198L17.0971 40.1832L20.4935 18.0522L17.4515 18.067L17.934 15.3473L29.2473 15.2925L28.782 18.0121L25.6887 18.0271L22.2924 40.158L25.3856 40.1431L24.9026 42.7431L13.6234 42.7977L14.0381 40.198ZM51.1352 42.6161L45.5127 42.6433L42.6958 36.1969L37.3506 22.8926L34.695 42.6957L29.7048 42.7199L33.5539 15.2717L39.3131 15.2438L42.0099 21.5883L47.475 34.9433L49.9941 15.1921L55.0014 15.1679L51.1352 42.6161ZM75.6992 19.0497L68.9146 19.0825L65.7639 42.5453L60.4832 42.5709L63.6168 19.1082L56.7638 19.1413L57.3084 15.1396L76.2608 15.0479L75.6992 19.0497ZM90.9028 42.4237L74.4113 42.5035L78.1578 15.0387L94.3417 14.9604L93.7628 18.9452L82.9622 18.9975L81.9714 26.1459L91.627 26.0992L91.1159 29.964L81.409 30.011L80.2028 38.5618L91.6358 38.5065L90.9028 42.4237ZM110.539 42.3286L94.6796 42.4054L98.4091 14.9578L103.758 14.9319L100.557 38.4633L111.067 38.4124L110.539 42.3286ZM128.996 42.2393L113.136 42.316L116.866 14.8685L122.215 14.8426L119.013 38.374L129.524 38.3231L128.996 42.2393ZM131.205 39.6309L134.264 39.6161L137.66 17.4851L134.618 17.4999L135.101 14.7802L146.414 14.7255L145.949 17.445L142.855 17.46L139.459 39.591L142.552 39.576L142.069 42.176L130.79 42.2306L131.205 39.6309ZM147.867 32.4921C147.853 29.5754 148.194 26.9875 148.889 24.7282C149.585 22.469 150.544 20.5674 151.767 19.0233C152.99 17.4679 154.431 16.2874 156.091 15.4819C157.75 14.6649 159.531 14.2518 161.434 14.2426C162.493 14.2603 163.474 14.3638 164.375 14.5531C165.276 14.731 166.08 14.9493 166.788 15.2079C167.507 15.4551 168.117 15.7142 168.62 15.9852C169.123 16.2448 169.5 16.4595 169.751 16.6291L167.941 20.5515C167.861 20.5177 167.639 20.4106 167.273 20.23C166.919 20.0495 166.446 19.8638 165.852 19.6729C165.259 19.4707 164.563 19.2918 163.765 19.1362C162.966 18.9805 162.089 18.905 161.132 18.9097C159.901 18.9156 158.798 19.2514 157.821 19.9169C156.844 20.5824 156.017 21.5036 155.339 22.6804C154.673 23.8458 154.161 25.2325 153.804 26.8407C153.459 28.4375 153.291 30.1758 153.3 32.0556C153.305 33.1494 153.412 34.0831 153.621 34.8568C153.83 35.6306 154.14 36.2614 154.553 36.7493C154.965 37.2372 155.474 37.5937 156.079 37.8186C156.684 38.0435 157.385 38.1541 158.183 38.1502C158.638 38.148 159.139 38.0772 159.686 37.9379C160.232 37.7985 160.761 37.6364 161.273 37.4517C161.784 37.2555 162.245 37.0539 162.654 36.8468C163.074 36.6283 163.376 36.4446 163.557 36.2956C163.59 36.022 163.629 35.754 163.673 35.4918C163.717 35.2295 163.756 34.9616 163.789 34.688L164.335 30.9597L159.139 30.9849L159.65 27.0688L169.323 27.022L167.276 42.054L163.824 42.0707L163.59 39.5938C163.33 39.9938 162.99 40.3828 162.57 40.7609C162.151 41.1389 161.668 41.4773 161.123 41.7762C160.589 42.0636 160.003 42.2943 159.366 42.4683C158.729 42.6537 158.068 42.748 157.385 42.7513C151.073 42.7819 147.9 39.3621 147.867 32.4921ZM188.04 41.9535L171.549 42.0333L175.295 14.5686L191.479 14.4903L190.9 18.475L180.1 18.5273L179.109 25.6757L188.765 25.629L188.253 29.4938L178.547 29.5408L177.34 38.0917L188.773 38.0363L188.04 41.9535ZM213.248 41.8315L207.625 41.8587L204.808 35.4123L199.463 22.108L196.807 41.9111L191.817 41.9352L195.666 14.4871L201.425 14.4592L204.122 20.8037L209.587 34.1587L212.107 14.4075L217.114 14.3833L213.248 41.8315ZM237.812 18.2651L231.027 18.2979L227.876 41.7607L222.596 41.7863L225.729 18.3236L218.876 18.3567L219.421 14.355L238.373 14.2633L237.812 18.2651Z" fill="black"/>
<path d="M9.63735 10.8862C7.31897 13.2045 6.73975 14.9433 6.73975 16.1025C6.73975 17.2617 8.47823 17.8413 9.63735 17.8413C10.7965 17.8413 12.5349 17.2617 12.5349 16.1025C12.5349 14.9433 11.9557 13.2046 9.63735 10.8862ZM4.99637 17.6271C4.64966 17.6231 4.20781 17.6821 3.61402 17.8413C4.03829 19.4247 4.54026 19.7149 5.04223 20.0047C5.54412 20.2945 6.33581 20.082 6.62568 19.58C6.91548 19.0781 6.70297 18.2863 6.20104 17.9965C5.8873 17.8154 5.57409 17.6339 4.99637 17.6271ZM14.2783 17.6271C13.7006 17.6339 13.3874 17.8154 13.0737 17.9966C12.5718 18.2863 12.3592 19.0781 12.649 19.58C12.9388 20.0819 13.7306 20.2945 14.2325 20.0047C14.7344 19.7149 15.2364 19.4247 15.6607 17.8413C15.0669 17.6821 14.625 17.6231 14.2783 17.6271ZM9.63735 19.0001C8.35701 19.0001 7.31859 20.0384 7.31859 21.3188C7.31859 22.5991 8.35698 23.6375 9.63735 23.6375C10.9177 23.6375 11.9561 22.5992 11.9561 21.3188C11.9561 20.0384 10.9177 19 9.63735 19V19.0001ZM4.21522 21.267C4.02681 21.2707 3.84302 21.318 3.67049 21.4176C2.66659 21.9973 1.45097 23.3681 0.602356 26.5351C3.76931 27.3836 5.56531 27.0158 6.56921 26.4363C7.57312 25.8567 7.20528 24.0614 6.62568 23.0575C6.1457 22.2262 5.12275 21.2491 4.21522 21.267ZM15.0077 21.267C14.1133 21.2859 13.1199 22.2419 12.649 23.0575C12.0694 24.0614 11.7016 25.8567 12.7055 26.4363C13.7094 27.0159 15.5054 27.3836 18.6723 26.5351C17.8238 23.3681 16.6081 21.9973 15.6042 21.4176C15.416 21.3089 15.2142 21.2627 15.0077 21.267ZM9.63735 24.7963C9.05775 24.7963 8.47861 25.3755 8.47861 25.9551C8.47861 26.5347 8.47816 27.1147 9.63735 28.2738C10.7965 27.1146 10.7961 26.5347 10.7961 25.9551C10.7961 25.3755 10.2169 24.7964 9.63735 24.7964V24.7963Z" fill="#5188ED" fill-opacity="0.72"/>
<g clip-path="url(#clip1_9_10)">
<path d="M29.0969 7.94975C27.4579 7.98386 26.6471 8.41079 26.2459 8.82906C25.8447 9.24734 26.2714 10.0582 26.6896 10.4594C27.1079 10.8606 27.9358 11.2532 28.337 10.8349C28.7382 10.4166 29.131 9.58874 29.0969 7.94975ZM25.0891 8.7758C24.9654 8.65433 24.7855 8.5227 24.5162 8.37461C24.1212 9.09283 24.2019 9.37127 24.2827 9.64958C24.3635 9.92788 24.7227 10.1252 25.0011 10.0444C25.2794 9.96359 25.4767 9.60434 25.3959 9.32604C25.3454 9.15211 25.2952 8.9782 25.0891 8.7758ZM28.4384 11.9884C28.2275 11.7909 28.0517 11.748 27.8758 11.7048C27.5944 11.6356 27.2437 11.8478 27.1745 12.1292C27.1054 12.4106 27.3175 12.7614 27.5989 12.8305C27.8803 12.8997 28.1619 12.9687 28.863 12.5442C28.7038 12.2812 28.5649 12.107 28.4384 11.9884ZM26.2885 10.8775C25.8265 10.4344 25.0925 10.4496 24.6493 10.9116C24.2061 11.3736 24.2214 12.1077 24.6834 12.5509C25.1454 12.994 25.8795 12.9788 26.3227 12.5168C26.7658 12.0548 26.7505 11.3207 26.2885 10.8775L26.2885 10.8775ZM23.5474 9.81884C23.4781 9.75496 23.3955 9.70839 23.2987 9.68463C22.7358 9.54632 21.8227 9.62023 20.4204 10.4693C21.2694 11.8716 22.0448 12.3605 22.6076 12.4988C23.1705 12.6372 23.6591 11.8621 23.7974 11.2992C23.912 10.8331 23.8811 10.1265 23.5474 9.81884ZM27.4417 13.5543C27.1125 13.2515 26.4231 13.2527 25.9709 13.384C25.4143 13.5456 24.6602 14.0661 24.8218 14.6227C24.9835 15.1793 25.5042 15.9337 26.9407 16.7236C27.7307 15.2871 27.7665 14.3717 27.6048 13.8151C27.5745 13.7107 27.5177 13.6242 27.4417 13.5543ZM24.2823 12.969C24.0732 12.7684 23.6638 12.777 23.4632 12.9861C23.2625 13.1952 23.0616 13.4044 23.0787 14.2238C23.8982 14.2068 24.0988 13.9973 24.2994 13.7882C24.5 13.5791 24.4915 13.1696 24.2823 12.969L24.2823 12.969Z" fill="#5188ED" fill-opacity="0.72"/>
</g>
<defs>
<clipPath id="clip0_9_10">
<rect width="14.7394" height="14.7394" fill="white" transform="translate(34.0141 14.4779)"/>
</clipPath>
<clipPath id="clip1_9_10">
<rect width="9.63732" height="9.63732" fill="white" transform="translate(25.9459 4.27368) rotate(43.8072)"/>
</clipPath>
</defs>
</svg>
